<svg xmlns="http://www.w3.org/2000/svg" xmlns:xlink="http://www.w3.org/1999/xlink" width="16" height="16" viewBox="0 0 16 16">
  <defs>
    <clipPath id="clip-safari-pinned-tab">
      <rect width="16" height="16"/>
    </clipPath>
  </defs>
  <g id="safari-pinned-tab" clip-path="url(#clip-safari-pinned-tab)">
    <g id="tofu-icon" transform="translate(-1353 190)">
      <path id="Subtraction_2" data-name="Subtraction 2" d="M1686-1215h-6a5.006,5.006,0,0,1-5-5v-6a5.006,5.006,0,0,1,5-5h6a5.006,5.006,0,0,1,5,5v6A5.006,5.006,0,0,1,1686-1215Zm-3.888-3.68h0a2.055,2.055,0,0,0,.911.229,2.018,2.018,0,0,0,.934-.245,2.082,2.082,0,0,0,.288-.183,1.841,1.841,0,0,0,.292-.271l.006-.007.006-.007a.867.867,0,0,0,.176-.278.649.649,0,0,0,.057-.257.985.985,0,0,0-.984-.984h-1.575a.985.985,0,0,0-.984.984.071.071,0,0,0,0,.014v.024a.085.085,0,0,0,0,.009.9.9,0,0,0,.224.472l.006.008,0,0a2.06,2.06,0,0,0,.634.486Zm3.778-6.64a1.933,1.933,0,0,0-1.105.376,1.043,1.043,0,0,0-.505.742.888.888,0,0,0,.886.882h.307a.266.266,0,0,1-.007-.058c0-.227.292-.412.652-.412s.653.185.653.412a.314.314,0,0,1,0,.039.882.882,0,0,0,.714-.862,1.041,1.041,0,0,0-.495-.742,1.9,1.9,0,0,0-1.1-.376Zm-5.68,0a1.933,1.933,0,0,0-1.105.376,1.042,1.042,0,0,0-.5.742.888.888,0,0,0,.886.882h.307a.21.21,0,0,1-.007-.058c0-.227.292-.412.652-.412s.652.185.652.412a.329.329,0,0,1,0,.042.889.889,0,0,0,.715-.866,1.041,1.041,0,0,0-.495-.742,1.9,1.9,0,0,0-1.1-.376Zm8.509-2.96a.921.921,0,0,0-.92.92.921.921,0,0,0,.92.921.921.921,0,0,0,.92-.921A.921.921,0,0,0,1688.719-1228.28Zm-1.16-1.36a.56.56,0,0,0-.56.56.56.56,0,0,0,.56.56.56.56,0,0,0,.56-.56A.56.56,0,0,0,1687.559-1229.64Z" transform="translate(-322 1041)"/>
    </g>
  </g>
</svg>
