<svg xmlns="http://www.w3.org/2000/svg" width="110" height="50" viewBox="0 0 110 50">
  <g id="logotype" transform="translate(-108.9 -58.55)">
    <path id="Path_9" data-name="Path 9" d="M2.765,3.29a3.268,3.268,0,0,0,.892,2.363,3.263,3.263,0,0,0,2.468.928,3.263,3.263,0,0,0,2.468-.928A3.268,3.268,0,0,0,9.485,3.29,3.268,3.268,0,0,0,8.593.927,3.263,3.263,0,0,0,6.125,0,3.263,3.263,0,0,0,3.657.927,3.268,3.268,0,0,0,2.765,3.29ZM3.92,7.875A3.16,3.16,0,0,0,2.8,9.012a3.532,3.532,0,0,0-.525,1.943,2.13,2.13,0,0,0,.577,1.628,3.786,3.786,0,0,0,1.7.823l2.73.665q1.75.455,1.75,1.68a1.425,1.425,0,0,1-.648,1.155,3.791,3.791,0,0,1-2.222.49,9.583,9.583,0,0,1-2.695-.368,7.971,7.971,0,0,1-2.03-.858,4.365,4.365,0,0,0-1.015,1.1A2.8,2.8,0,0,0,0,18.83a2.538,2.538,0,0,0,.525,1.592,3.872,3.872,0,0,0,1.453,1.12,8.344,8.344,0,0,0,2.2.648A17.43,17.43,0,0,0,7,22.4q4.13,0,6.248-1.837a6.066,6.066,0,0,0,2.118-4.812q0-5.6-7.91-7.175Z" transform="translate(179 87.501) rotate(-20)" fill="#ba602b"/>
    <path id="Path_8" data-name="Path 8" d="M2.6-23.95a11.59,11.59,0,0,1,1.575-.3A16.089,16.089,0,0,1,6.4-24.4a11.761,11.761,0,0,1,1.975.15,3.364,3.364,0,0,1,1.475.6,2.886,2.886,0,0,1,.925,1.225A5.3,5.3,0,0,1,11.1-20.4V-9.65a3.715,3.715,0,0,0,1,2.925A4.277,4.277,0,0,0,15-5.85a7.236,7.236,0,0,0,1.875-.2A6.453,6.453,0,0,0,18-6.45v-17.5a11.59,11.59,0,0,1,1.575-.3A16.089,16.089,0,0,1,21.8-24.4a11.761,11.761,0,0,1,1.975.15,3.364,3.364,0,0,1,1.475.6,2.886,2.886,0,0,1,.925,1.225A5.3,5.3,0,0,1,26.5-20.4V-5.2a4.086,4.086,0,0,1-2.1,3.75A13.761,13.761,0,0,1,20.225.225,22.844,22.844,0,0,1,14.95.8,19.476,19.476,0,0,1,9.975.2,11.113,11.113,0,0,1,6.05-1.65,8.271,8.271,0,0,1,3.5-4.875,11.462,11.462,0,0,1,2.6-9.65Z" transform="translate(192.4 89)" fill="#fff2df"/>
    <path id="Path_7" data-name="Path 7" d="M24.55-30.3a5.927,5.927,0,0,1,.625,1.475A6.719,6.719,0,0,1,25.45-26.9a3.835,3.835,0,0,1-.825,2.775A3.007,3.007,0,0,1,22.4-23.3H11.9v5.65H22.85a4.9,4.9,0,0,1,.675,1.45,6.467,6.467,0,0,1,.275,1.9,3.753,3.753,0,0,1-.825,2.725,3.007,3.007,0,0,1-2.225.825H12V-.2a13.885,13.885,0,0,1-1.725.3A18.346,18.346,0,0,1,7.95.25,10.414,10.414,0,0,1,5.925.075,3.6,3.6,0,0,1,4.45-.55a2.7,2.7,0,0,1-.9-1.25,6.1,6.1,0,0,1-.3-2.1V-25.65a4.594,4.594,0,0,1,1.25-3.4A4.594,4.594,0,0,1,7.9-30.3Z" transform="translate(160.992 89)" fill="#fcd1a6"/>
    <path id="Path_6" data-name="Path 6" d="M27.75-12.15a15.058,15.058,0,0,1-.95,5.525A11.2,11.2,0,0,1,24.125-2.55,11.376,11.376,0,0,1,20-.05,15.942,15.942,0,0,1,14.65.8,15.138,15.138,0,0,1,9.3-.1,11.774,11.774,0,0,1,5.175-2.675,11.488,11.488,0,0,1,2.5-6.75a14.567,14.567,0,0,1-.95-5.4A14.423,14.423,0,0,1,2.5-17.5a11.488,11.488,0,0,1,2.675-4.075A11.774,11.774,0,0,1,9.3-24.15a15.138,15.138,0,0,1,5.35-.9,14.771,14.771,0,0,1,5.35.925,12.075,12.075,0,0,1,4.125,2.6A11.488,11.488,0,0,1,26.8-17.45,14.281,14.281,0,0,1,27.75-12.15Zm-17.5,0a7.9,7.9,0,0,0,1.175,4.675A3.813,3.813,0,0,0,14.7-5.85,3.668,3.668,0,0,0,17.925-7.5a8.194,8.194,0,0,0,1.125-4.65,7.933,7.933,0,0,0-1.15-4.625A3.749,3.749,0,0,0,14.65-18.4a3.749,3.749,0,0,0-3.25,1.625A7.933,7.933,0,0,0,10.25-12.15Z" transform="translate(132.519 89)" fill="#fff2df"/>
    <path id="Path_5" data-name="Path 5" d="M1.85-23.3a6.474,6.474,0,0,1-.65-1.5,6.6,6.6,0,0,1-.3-2,3.783,3.783,0,0,1,.875-2.8,3.127,3.127,0,0,1,2.275-.85h21.8a6.473,6.473,0,0,1,.65,1.5,6.6,6.6,0,0,1,.3,2,3.783,3.783,0,0,1-.875,2.8,3.127,3.127,0,0,1-2.275.85H18.1V-.2a13.885,13.885,0,0,1-1.725.3A18.346,18.346,0,0,1,14.05.25,10.414,10.414,0,0,1,12.025.075,3.6,3.6,0,0,1,10.55-.55a2.7,2.7,0,0,1-.9-1.25,6.1,6.1,0,0,1-.3-2.1V-23.3Z" transform="translate(108 89)" fill="#fcd1a6"/>
  </g>
</svg>
