<svg xmlns="http://www.w3.org/2000/svg" width="200" height="200" viewBox="0 0 200 200">
  <g id="tofu-icon" transform="translate(-156 -156)">
    <rect id="body" width="200" height="200" rx="60" transform="translate(156 156)" fill="#fff2df"/>
    <g id="smile" transform="translate(0 1)">
      <path id="Path_4" data-name="Path 4" d="M22.281,25.879c11.07,0,22-8.787,22-15.579A12.3,12.3,0,0,0,31.979-2H12.3A12.3,12.3,0,0,0,0,10.3C0,17.092,11.212,25.879,22.281,25.879Z" transform="translate(234 286)" fill="#fcd1a6"/>
      <path id="Subtraction_1" data-name="Subtraction 1" d="M10.9,25.015h0C4.482,21.785,0,16.556,0,12.3A12.3,12.3,0,0,1,12.3,0H31.979a12.3,12.3,0,0,1,12.3,12.3,10.849,10.849,0,0,1-2.914,6.674,25.04,25.04,0,0,1-7.4,5.84C31.983,21.889,27.481,20,22.5,20c-5.131,0-9.685,1.968-11.6,5.014Z" transform="translate(234 284)" fill="#ba602b"/>
    </g>
    <path id="eye" d="M14.9,25H11.111A11.083,11.083,0,0,1,0,13.971C0,11.022,2.36,7.556,6.314,4.7A24.276,24.276,0,0,1,20.128,0,23.753,23.753,0,0,1,33.814,4.7C37.687,7.546,40,11.012,40,13.971a11.071,11.071,0,0,1-8.931,10.817,3.326,3.326,0,0,0,.042-.524c0-2.838-3.655-5.147-8.148-5.147s-8.148,2.309-8.148,5.147A3.335,3.335,0,0,0,14.9,25Z" transform="translate(272 227)" fill="#ba602b"/>
    <path id="eye-2" data-name="eye" d="M14.9,25H11.111A11.083,11.083,0,0,1,0,13.971C0,11.022,2.36,7.556,6.314,4.7A24.276,24.276,0,0,1,20.128,0,23.753,23.753,0,0,1,33.814,4.7C37.687,7.546,40,11.012,40,13.971a11.071,11.071,0,0,1-8.931,10.817,3.326,3.326,0,0,0,.042-.524c0-2.838-3.655-5.147-8.148-5.147s-8.148,2.309-8.148,5.147A3.335,3.335,0,0,0,14.9,25Z" transform="translate(201 227)" fill="#ba602b"/>
    <g id="holes" transform="translate(-13)">
      <circle id="Ellipse_1" data-name="Ellipse 1" cx="7" cy="7" r="7" transform="translate(319 173)" fill="#fcd1a6"/>
      <circle id="Ellipse_2" data-name="Ellipse 2" cx="11.5" cy="11.5" r="11.5" transform="translate(329 190)" fill="#fcd1a6"/>
    </g>
  </g>
</svg>
